# xmcd CD database file
#
# Track frame offsets:
#	150
#	15069
#	31336
#	51375
#	70281
#	90854
#	110773
#	134405
#	154818
#	175663
#	217878
#	240881
#
# Disc length: 3469 seconds
#
# Revision: 0
# Processed by: cddbd v1.5.1PL0 Copyright (c) Steve Scherf et al.
# Submitted via: Feurio! 1.67 - http://www.feurio.com
#
DISCID=8e0d8b0c
DTITLE=Bloodline - Bloodline
DYEAR=1994
DGENRE=Blues
TTITLE0=Stone cold Hearted
TTITLE1=Dixie Peach
TTITLE2=Cell Block 7
TTITLE3=Storm [Instrumental]
TTITLE4=The good luck you're having
TTITLE5=Honest Crime
TTITLE6=So far away
TTITLE7=Calling me back
TTITLE8=Bad Girls
TTITLE9=Since you're gone
TTITLE10=Trouble is my Business
TTITLE11=Get off your Back
EXTD=
EXTT0=
EXTT1=
EXTT2=
EXTT3=
EXTT4=
EXTT5=
EXTT6=
EXTT7=
EXTT8=
EXTT9=
EXTT10=
EXTT11=
PLAYORDER=
